<?xml version="1.0" encoding="UTF-8"?>
<svg id="Layer_2" data-name="Layer 2" xmlns="http://www.w3.org/2000/svg" viewBox="0 0 410.57 137.76">
  <defs>
    <style>
      .cls-1 {
        fill: #383fa3;
      }
    </style>
  </defs>
  <g id="Layer_1-2" data-name="Layer 1">
    <g>
      <path class="cls-1" d="M203.5,88.76h-18.51l-7.7-20.59-2.95,20.59h-18l7.13-50.4h18.51l7.78,20.59,2.88-20.59h18l-7.13,50.4Z"/>
      <path class="cls-1" d="M227.19,70.76c-.29,3.75,2.23,5.04,4.18,5.26,2.59.36,4.39-.72,4.68-2.95.58-4.18-7.2-3.74-14.47-6.62-5.18-2.3-8.93-6.26-7.99-13.1,1.44-10.01,10.44-15.7,23.4-15.7,13.61,0,19.95,5.98,20.02,15.84l-17.5,2.16c.72-3.96-1.73-5.26-4.46-5.26-1.73,0-3.24,1.08-3.6,3.46-.58,4.1,6.99,3.53,14.69,6.77,5.33,2.3,9.14,6.7,8.21,13.46-1.37,9.43-9.79,15.41-24.55,15.41-11.23,0-20.23-5.9-20.52-15.7l17.93-3.02Z"/>
      <path class="cls-1" d="M299.62,38.36h18.72l-7.13,50.4h-18l2.95-20.81-7.85,15.99h-8.21l-3.31-15.99-3.02,20.81h-18l7.13-50.4h18.72l5.9,22.18,12.1-22.18Z"/>
      <path class="cls-1" d="M358.37,52.26h-18.72l-.86,6.05h15.84l-1.8,12.96h-15.84l-2.52,17.5h-18l7.13-50.4h36.72l-1.94,13.9Z"/>
      <path class="cls-1" d="M391.64,38.36h18.94l-19.87,36.22-2.02,14.26h-18l2.02-14.26-9.43-36.22h18.87l1.73,17.86h1.01l6.77-17.86Z"/>
    </g>
    <g>
      <g>
        <path class="cls-1" d="M77.6,108.1c-.16,0-.32,0-.49-.03-2.39-.27-4.12-2.42-3.85-4.81l4.36-39.22c.27-2.39,2.42-4.11,4.81-3.85,2.39.27,4.12,2.42,3.85,4.81l-4.36,39.22c-.25,2.23-2.13,3.88-4.33,3.88Z"/>
        <path class="cls-1" d="M99.39,68.88c-1.51,0-2.98-.79-3.79-2.2l-17.43-30.5c-1.19-2.09-.47-4.75,1.62-5.95,2.09-1.19,4.75-.47,5.95,1.62l17.43,30.5c1.19,2.09.47,4.75-1.62,5.95-.68.39-1.43.58-2.16.58Z"/>
        <path class="cls-1" d="M112.45,68.88H25.31c-2.41,0-4.36-1.95-4.36-4.36s1.95-4.36,4.36-4.36h87.15c2.41,0,4.36,1.95,4.36,4.36s-1.95,4.36-4.36,4.36Z"/>
        <path class="cls-1" d="M47.27,108.1c-6.12,0-11.48-4.36-12.73-10.46l-6.96-32.19c-.51-2.35.99-4.67,3.34-5.18,2.35-.51,4.67.99,5.18,3.34l6.97,32.24c.43,2.11,2.28,3.61,4.37,3.54h42.79c2.17.06,4.02-1.42,4.44-3.49,0-.04.01-.07.02-.11l7.41-32.24c.54-2.35,2.88-3.81,5.22-3.27,2.35.54,3.81,2.88,3.27,5.22l-7.4,32.2c-1.28,6.16-6.78,10.56-13.06,10.4h-42.62c-.09,0-.17,0-.26,0Z"/>
        <path class="cls-1" d="M101.56,88.49H36.2c-2.41,0-4.36-1.95-4.36-4.36s1.95-4.36,4.36-4.36h65.36c2.41,0,4.36,1.95,4.36,4.36s-1.95,4.36-4.36,4.36Z"/>
        <path class="cls-1" d="M38.37,68.88c-.73,0-1.48-.19-2.16-.58-2.09-1.19-2.82-3.86-1.62-5.95l17.43-30.5c1.19-2.09,3.86-2.81,5.94-1.62,2.09,1.19,2.82,3.86,1.62,5.94l-17.43,30.5c-.8,1.41-2.27,2.2-3.79,2.2Z"/>
        <path class="cls-1" d="M60.16,108.1c-2.19,0-4.08-1.65-4.33-3.88l-4.36-39.22c-.27-2.39,1.46-4.55,3.85-4.81,2.39-.26,4.55,1.46,4.81,3.85l4.36,39.22c.27,2.39-1.46,4.55-3.85,4.81-.16.02-.33.03-.49.03Z"/>
      </g>
      <path class="cls-1" d="M68.88,137.76C30.9,137.76,0,106.86,0,68.88S30.9,0,68.88,0s68.88,30.9,68.88,68.88-30.9,68.88-68.88,68.88ZM68.88,4.49C33.37,4.49,4.49,33.37,4.49,68.88s28.89,64.39,64.39,64.39,64.39-28.89,64.39-64.39S104.39,4.49,68.88,4.49Z"/>
    </g>
  </g>
</svg>